<?xml version="1.0" encoding="iso-8859-1"?>
<!-- Generator: Adobe Illustrator 19.0.0, SVG Export Plug-In . SVG Version: 6.00 Build 0)  -->
<svg version="1.1" id="Layer_1" xmlns="http://www.w3.org/2000/svg" xmlns:xlink="http://www.w3.org/1999/xlink" x="0px" y="0px"
	 viewBox="0 0 512.001 512.001" style="fill:#e9e9e9;" xml:space="preserve">
<g>
	<g>
		<path d="M155.145,0.402V512h161.186V0.402H155.145z M285.937,48.523h-53.356v30.393h53.356v17.727h-77.541v30.393h77.541v17.727
			h-53.356v30.393h53.356v17.727h-77.541v30.393h77.541v17.727h-53.356v30.393h53.356v17.727h-77.541v30.393h77.541v17.727h-53.356
			v30.393h53.356v17.727h-77.541v30.393h77.541v17.727h-53.356v30.393h53.356v17.727H185.538V30.795h100.399V48.523z"/>
	</g>
</g>
<g>
	<g>
		<path d="M76.149,0L31.263,45.662v421.453c0,24.75,20.136,44.886,44.886,44.886s44.886-20.135,44.886-44.886V45.662L76.149,0z
			 M61.656,367.643V101.534H90.64v266.11H61.656V367.643z M90.64,467.114c0.001,7.991-6.5,14.493-14.492,14.493
			s-14.492-6.501-14.492-14.493v-28.553H90.64V467.114z M90.641,408.167H61.656v-10.131h28.985V408.167z M90.641,71.141H61.656
			V58.099l14.492-14.743l14.493,14.743V71.141z"/>
	</g>
</g>
<g>
	<g>
		<path d="M450.345,45.288v25.328h-10.131V45.288c0-24.75-20.136-44.886-44.886-44.886s-44.886,20.135-44.886,44.886v147.426v30.393
			v244.007c0,24.75,20.136,44.886,44.886,44.886s44.886-20.136,44.886-44.886V223.107v-30.393v-91.705h10.131v142.697h30.393V45.288
			H450.345z M395.328,481.607c-7.991,0-14.492-6.501-14.492-14.493V223.107h28.984v244.007h0.001
			C409.82,475.106,403.319,481.607,395.328,481.607z M409.82,192.714h-28.985V45.288c0-7.991,6.501-14.493,14.492-14.493
			s14.492,6.501,14.492,14.493V192.714z"/>
	</g>
</g>
<g>
</g>
<g>
</g>
<g>
</g>
<g>
</g>
<g>
</g>
<g>
</g>
<g>
</g>
<g>
</g>
<g>
</g>
<g>
</g>
<g>
</g>
<g>
</g>
<g>
</g>
<g>
</g>
<g>
</g>
</svg>
